<svg width="39" height="39" xmlns="http://www.w3.org/2000/svg" xmlns:xlink="http://www.w3.org/1999/xlink" overflow="hidden"><defs><clipPath id="clip0"><rect x="654" y="632" width="39" height="39"/></clipPath></defs><g clip-path="url(#clip0)" transform="translate(-654 -632)"><path d="M655.668 651.99C655.685 652.025 655.702 652.06 655.72 652.094 656.996 654.594 659.291 656.275 662.54 657.094 663.762 657.403 665.017 657.559 666.278 657.56 668.361 657.547 670.423 657.14 672.355 656.361 674.388 655.559 676.316 654.515 678.098 653.251 681.076 651.144 682.963 649.927 683.708 649.635 684.949 649.13 686.334 649.107 687.591 649.572 688.836 649.988 689.862 650.883 690.445 652.059 690.961 653.119 691.063 654.334 690.731 655.466 690.569 656.075 690.589 656.305 690.67 656.464 690.791 656.72 691.095 656.831 691.353 656.713L691.353 656.713C691.912 656.492 692.135 655.712 692.075 654.182 692.069 653.027 691.814 651.887 691.329 650.838 690.101 648.433 687.921 646.867 684.848 646.183 681.813 645.507 678.564 645.836 675.191 647.164 673.241 647.931 670.414 649.612 666.788 652.161 665.939 652.772 665.024 653.286 664.061 653.694 662.694 654.205 661.186 654.191 659.83 653.653 657.117 652.859 655.516 650.064 656.204 647.322 656.494 646.055 656.469 645.873 656.392 645.724 656.261 645.445 655.929 645.325 655.65 645.455 655.014 645.706 654.751 646.6 654.824 648.268 654.851 649.513 655.12 650.741 655.618 651.883ZM681.21 648.432C679.189 649.322 677.251 650.39 675.418 651.622 673.605 652.84 671.687 653.895 669.688 654.774 666.851 655.891 664.292 656.125 662.039 655.478 663.536 655.695 665.063 655.515 666.467 654.955 668.147 654.226 669.76 653.352 671.286 652.341 674.249 650.479 676.599 649.202 678.274 648.544 680.819 647.542 683.088 647.275 685.123 647.751 683.785 647.69 682.449 647.922 681.21 648.432Z" fill="#E81C23"/></g></svg>